# xmcd
#
# Track frame offsets: 
#        150
#        21452
#        36295
#        52427
#        65280
#        78935
#        89545
#        107817
#        122372
#        134005
#        147162
#        170107
#        182822
#
# Disc length: 2655 seconds
#
# Revision: 1
# Processed by: cddbd v1.5.2PL0 Copyright (c) Steve Scherf et al.
# Submitted via: ExactAudioCopy v0.95b4
#
DISCID=c20a5d0d
DTITLE=Os Originais do Samba - Os Originais do Samba
DYEAR=1969
DGENRE=Samba
TTITLE0=Cadê Tereza
TTITLE1=Rapaz do Violão
TTITLE2=Enlouqueci
TTITLE3=No Morro é Assim
TTITLE4=Bacubufo no Caterefofo
TTITLE5=Despertar do Lavador
TTITLE6=Sei Lá Mangueira
TTITLE7=Domingo de Rosa
TTITLE8=Larga Meu Pé, Reumatismo
TTITLE9=Não Se Ganha se Não Quiser
TTITLE10=Canto Chorado
TTITLE11=Até Meu Final
TTITLE12=Cadê Tereza (Faixa Bônus - Estéreo Mix)
EXTD=
EXTT0=
EXTT1=
EXTT2=
EXTT3=
EXTT4=
EXTT5=
EXTT6=
EXTT7=
EXTT8=
EXTT9=
EXTT10=
EXTT11=
EXTT12=
PLAYORDER=
